<?xml version="1.0" encoding="UTF-8"?>
<svg version="1.1" xmlns="http://www.w3.org/2000/svg" width="1080" height="1080">
<path d="M0 0 C1.24068741 -0.00700928 2.48137482 -0.01401855 3.75965881 -0.02124023 C7.12570139 -0.0357123 10.49074536 -0.03248594 13.85672951 -0.01972389 C17.40250475 -0.00949723 20.94824139 -0.01901608 24.49401855 -0.02526855 C30.44514498 -0.03251716 36.39607193 -0.02303106 42.34716797 -0.00390625 C49.19787125 0.0178573 56.04809812 0.01080393 62.89878988 -0.01121187 C68.81258731 -0.02944595 74.7262425 -0.03188537 80.64005899 -0.0214572 C84.1581441 -0.01526593 87.67600633 -0.01426447 91.19407654 -0.02760315 C95.12045371 -0.04145386 99.0463102 -0.02218194 102.97265625 0 C104.68903038 -0.01214539 104.68903038 -0.01214539 106.44007874 -0.02453613 C118.10329281 0.0967577 127.77356988 3.37510263 136.98632812 10.51757812 C138.01886719 11.28714844 138.01886719 11.28714844 139.07226562 12.07226562 C149.15851191 20.14899158 154.88155805 31.942333 156.35401917 44.7044239 C156.50022824 47.99372036 156.52747063 51.26055957 156.50390625 54.55297852 C156.51442017 56.39959831 156.51442017 56.39959831 156.52514648 58.28352356 C156.53960148 61.61852036 156.53640399 64.95250703 156.52363014 68.28744435 C156.51339172 71.80251722 156.5229253 75.3175515 156.5291748 78.83262634 C156.53641912 84.7306987 156.52694775 90.62856966 156.5078125 96.52661133 C156.48603965 103.31542083 156.4931108 110.10374974 156.51511812 116.89254767 C156.53335248 122.75541062 156.53579179 128.6181301 156.52536345 134.48101228 C156.51917363 137.96778407 156.51816681 141.45433099 156.5315094 144.94108772 C156.54536105 148.83143485 156.52608773 152.72125655 156.50390625 156.61157227 C156.51200317 157.7448999 156.5201001 158.87822754 156.52844238 160.04589844 C156.38792992 173.43428999 151.75656575 185.0785302 142.73242188 194.99414062 C132.40654415 204.90565729 120.5452037 209.86137535 106.37915039 209.74462891 C105.44178543 209.74492096 104.50442047 209.74521301 103.53865051 209.74551392 C100.45991555 209.74412764 97.38142673 209.72859952 94.30273438 209.71289062 C92.16039665 209.709158 90.01805721 209.70631221 87.87571716 209.70431519 C82.25167077 209.69669839 76.62772854 209.67706666 71.00372314 209.65490723 C65.25900684 209.63440669 59.51427363 209.62530448 53.76953125 209.61523438 C42.50841791 209.59381894 31.2473817 209.55970659 19.98632812 209.51757812 C19.98784701 210.61853445 19.98936589 211.71949078 19.9909308 212.85380942 C20.05762932 261.39121073 20.11933725 309.92861492 20.15570068 358.46604919 C20.15652903 359.56888201 20.15652903 359.56888201 20.1573741 360.69399428 C20.16934667 376.67363745 20.18042726 392.65328112 20.19058944 408.63292554 C20.19557864 416.46972066 20.20076488 424.30651563 20.20605469 432.14331055 C20.20683924 433.31307256 20.20683924 433.31307256 20.20763965 434.50646613 C20.22467481 459.76808496 20.2547124 485.02966792 20.29151701 510.29126503 C20.32928028 536.25811889 20.35387753 562.22495292 20.36198809 588.19183378 C20.36314065 591.8622992 20.36444319 595.53276456 20.3658371 599.2032299 C20.36624164 600.28679444 20.36624164 600.28679444 20.36665435 601.39224917 C20.37137504 613.00479107 20.38991056 624.6172715 20.41365626 636.22978837 C20.4372518 647.91382874 20.44586537 659.59779336 20.44033363 671.28185827 C20.43777311 677.60869468 20.44168306 683.93535116 20.46315002 690.26215553 C20.48267953 696.0604108 20.48355643 701.85836591 20.4699237 707.65663528 C20.4682399 709.74841524 20.47325944 711.84021427 20.48586085 713.93195695 C20.60318606 734.61879242 17.09640622 752.44357053 2.98632812 768.51757812 C2.12974609 769.5153125 2.12974609 769.5153125 1.25585938 770.53320312 C-9.166989 781.82277023 -25.32137751 790.85727645 -40.93009411 791.6099963 C-43.32008255 791.64984977 -45.70815556 791.65593755 -48.09847832 791.6517992 C-49.01991725 791.65415143 -49.94135618 791.65650366 -50.89071751 791.65892717 C-53.99526183 791.66561313 -57.09976426 791.66515907 -60.20431519 791.66474915 C-62.44595692 791.66804803 -64.68759806 791.67177365 -66.92923844 791.67589062 C-73.1028411 791.68591611 -79.27643403 791.68962831 -85.45004368 791.69227993 C-91.42043027 791.69578094 -97.39081011 791.70392815 -103.36119211 791.71182387 C-119.35941458 791.73266507 -135.35763889 791.74313806 -151.35587177 791.75195348 C-158.92610189 791.75616096 -166.49633122 791.76138286 -174.06656067 791.76663801 C-199.98593016 791.78452905 -225.90529987 791.79952404 -251.82467461 791.8069582 C-253.45184541 791.80743295 -255.07901621 791.80790884 -256.70618702 791.80838586 C-257.91657159 791.80874042 -257.91657159 791.80874042 -259.15140837 791.80910215 C-263.23961079 791.81030334 -267.32781321 791.81151879 -271.41601562 791.81274414 C-272.22732908 791.81298429 -273.03864253 791.81322444 -273.87454123 791.81347187 C-300.16978705 791.82136198 -326.46498772 791.84478742 -352.76021383 791.87730008 C-380.5677227 791.91161974 -408.37520516 791.93131138 -436.18273556 791.93460244 C-439.23716109 791.93501997 -442.2915866 791.93549953 -445.34601212 791.93602562 C-446.47412186 791.93621041 -446.47412186 791.93621041 -447.62502171 791.93639893 C-459.71428812 791.93872843 -471.803502 791.95437455 -483.89274971 791.97486747 C-496.05226732 791.99515194 -508.21172202 792.00059041 -520.37125342 791.99109683 C-526.9553149 791.98634883 -533.53924001 791.98844971 -540.12328148 792.00785828 C-546.15634264 792.02548879 -552.18910954 792.0244927 -558.22217382 792.00896098 C-560.39926562 792.00658478 -562.57637778 792.01090902 -564.75343846 792.02278963 C-585.91733749 792.13108689 -605.10879308 788.91844134 -620.95874023 773.62548828 C-622.32189468 772.26764333 -623.66833544 770.89307906 -625.01367188 769.51757812 C-625.68011719 768.88335938 -626.3465625 768.24914062 -627.03320312 767.59570312 C-631.02659012 763.52118637 -633.65622275 758.85626373 -636.26367188 753.83007812 C-636.59334961 753.20721924 -636.92302734 752.58436035 -637.26269531 751.94262695 C-643.8222821 738.62706861 -643.44303411 724.77454486 -643.3946228 710.30674744 C-643.3980829 708.05193673 -643.40284982 705.79712772 -643.40880454 703.54232222 C-643.42129567 697.36955548 -643.41515266 691.19692838 -643.40584588 685.02416122 C-643.399747 679.04347315 -643.40775685 673.06280806 -643.41528798 667.08212529 C-643.43105687 654.10098911 -643.4297274 641.11989732 -643.42105124 628.13875696 C-643.4134964 616.77918672 -643.41153828 605.41963273 -643.41511917 594.0600605 C-643.41534833 593.30575027 -643.41557748 592.55144004 -643.41581358 591.77427193 C-643.41674764 588.71208067 -643.41770284 585.64988942 -643.41869287 582.58769818 C-643.42786388 553.8792184 -643.41955882 525.17076685 -643.40340218 496.46229143 C-643.38916458 470.96988164 -643.39044116 445.47751682 -643.40478516 419.98510742 C-643.42085679 391.32670434 -643.42721486 362.66832619 -643.41794837 334.00991923 C-643.41698625 330.95370615 -643.41604773 327.89749307 -643.41511917 324.84127998 C-643.41488194 324.0887934 -643.41464471 323.33630682 -643.41440029 322.56101762 C-643.41099121 311.20932632 -643.41497243 299.85765307 -643.42255783 288.50596428 C-643.43114138 275.59636268 -643.42897873 262.68681231 -643.4127156 249.77721708 C-643.40469224 243.19147484 -643.40173861 236.60580498 -643.41166306 230.02006149 C-643.4206136 223.98936017 -643.41567088 217.95883448 -643.3997304 211.92814905 C-643.39638418 209.74866332 -643.39807305 207.5691627 -643.40535776 205.38968658 C-643.44802381 191.56205736 -642.92367844 179.08586358 -636.51367188 166.51757812 C-636.17400391 165.84605713 -635.83433594 165.17453613 -635.484375 164.48266602 C-631.72963358 157.44085261 -626.72554928 152.01852948 -621.01367188 146.51757812 C-620.35753906 145.84210938 -619.70140625 145.16664063 -619.02539062 144.47070312 C-603.4505799 129.39615399 -582.42027234 127.91573834 -562.05104065 128.03656006 C-559.84782381 128.03481319 -557.6446078 128.03130616 -555.44139618 128.02620339 C-549.42094287 128.01730243 -543.40077676 128.03319986 -537.38036001 128.05331564 C-531.54454062 128.0688641 -525.70875182 128.06546858 -519.87291692 128.06258827 C-507.94480163 128.05734868 -496.01677538 128.07063715 -484.08868599 128.0946579 C-472.2864087 128.11836411 -460.48416853 128.13372936 -448.6818676 128.13806915 C-447.57918903 128.13848159 -447.57918903 128.13848159 -446.45423413 128.13890236 C-442.72060469 128.14025578 -438.98697522 128.14146128 -435.25334572 128.14260986 C-408.84034004 128.15100102 -382.42738274 128.1779211 -356.0144043 128.21582031 C-330.36206316 128.2525855 -304.70973527 128.28090648 -279.05737305 128.29785156 C-278.26600225 128.29837767 -277.47463145 128.29890377 -276.65927972 128.29944582 C-268.71166876 128.30472011 -260.76405769 128.30982334 -252.81644653 128.31480126 C-236.62770661 128.32494483 -220.43896755 128.33622984 -204.25022888 128.34820557 C-203.50597361 128.34875473 -202.76171834 128.34930389 -201.99490989 128.34986969 C-152.33447667 128.38664317 -102.67407184 128.450104 -53.01367188 128.51757812 C-53.03032646 126.88838188 -53.03032646 126.88838188 -53.0473175 125.22627258 C-53.14908665 114.9438307 -53.22382487 104.66149224 -53.27273273 94.37865925 C-53.29872298 89.09328887 -53.3339261 83.80832808 -53.39086914 78.52319336 C-53.44556819 73.41381546 -53.47517173 68.30482921 -53.48805809 63.19518089 C-53.4972304 61.2548933 -53.51514024 59.31462487 -53.54232216 57.374506 C-53.78820853 39.08124199 -50.20848599 26.72964371 -37.49414062 12.91601562 C-27.2013755 2.96364115 -13.9123339 -0.09844629 0 0 Z M-340.01367188 203.51757812 C-340.01367188 229.58757812 -340.01367188 255.65757812 -340.01367188 282.51757812 C-275.00367188 282.51757812 -209.99367188 282.51757812 -143.01367188 282.51757812 C-143.01367188 349.17757812 -143.01367188 415.83757812 -143.01367188 484.51757812 C-112.98367188 484.51757812 -82.95367188 484.51757812 -52.01367188 484.51757812 C-52.01367188 391.78757812 -52.01367188 299.05757812 -52.01367188 203.51757812 C-147.05367187 203.51757812 -242.09367188 203.51757812 -340.01367188 203.51757812 Z " fill="#000000" transform="translate(858.013671875,116.482421875)"/>
</svg>
